<svg width="194" height="40" viewBox="0 0 194 40" fill="none" xmlns="http://www.w3.org/2000/svg">
<path d="M17.0234 8.28516C16.332 8.28516 15.7812 7.73438 15.7812 7.04297C15.7812 6.36328 16.3437 5.80078 17.0234 5.80078C17.7148 5.80078 18.2539 6.35156 18.2539 7.04297C18.2539 7.74609 17.7266 8.28516 17.0234 8.28516ZM11.4219 11.5078C10.7305 11.5078 10.1797 10.957 10.1797 10.2656C10.1797 9.58594 10.7539 9.02344 11.4219 9.02344C12.1133 9.02344 12.6641 9.57422 12.6641 10.2656C12.6641 10.9688 12.125 11.5078 11.4219 11.5078ZM22.6133 11.5078C21.9219 11.5078 21.3711 10.957 21.3711 10.2656C21.3711 9.58594 21.9453 9.02344 22.6133 9.02344C23.3047 9.02344 23.8555 9.57422 23.8555 10.2656C23.8555 10.9688 23.3164 11.5078 22.6133 11.5078ZM17.0234 15.2109C16.0977 15.2109 15.3477 14.4609 15.3477 13.5352C15.3477 12.6328 16.1094 11.8711 17.0234 11.8711C17.9375 11.8711 18.6875 12.6211 18.6875 13.5352C18.6875 14.4727 17.9492 15.2109 17.0234 15.2109ZM5.83203 14.7773C5.14062 14.7773 4.58984 14.2266 4.58984 13.5352C4.58984 12.8672 5.15234 12.3047 5.83203 12.3047C6.52344 12.3047 7.0625 12.8555 7.0625 13.5352C7.0625 14.2383 6.53516 14.7773 5.83203 14.7773ZM28.168 14.7773C27.4766 14.7773 26.9258 14.2266 26.9258 13.5352C26.9258 12.8672 27.4883 12.3047 28.168 12.3047C28.8594 12.3047 29.4102 12.8438 29.4102 13.5352C29.4102 14.2383 28.8711 14.7773 28.168 14.7773ZM11.4219 18.457C10.5078 18.457 9.75781 17.707 9.75781 16.7813C9.75781 15.8789 10.5195 15.1055 11.4219 15.1055C12.3477 15.1055 13.0977 15.8555 13.0977 16.7813C13.0977 17.7188 12.3594 18.457 11.4219 18.457ZM22.6133 18.457C21.6992 18.457 20.9492 17.707 20.9492 16.7813C20.9492 15.8789 21.7109 15.1055 22.6133 15.1055C23.5391 15.1055 24.2891 15.8555 24.2891 16.7813C24.2891 17.7188 23.5508 18.457 22.6133 18.457ZM17.0234 21.9961C15.9453 21.9961 15.0664 21.1055 15.0664 20.0391C15.0664 18.9727 15.957 18.082 17.0234 18.082C18.0898 18.082 18.9805 18.9609 18.9805 20.0391C18.9805 21.1289 18.1133 21.9961 17.0234 21.9961ZM5.83203 21.2813C5.14062 21.2813 4.58984 20.7305 4.58984 20.0391C4.58984 19.3594 5.15234 18.7969 5.83203 18.7969C6.52344 18.7969 7.0625 19.3477 7.0625 20.0391C7.0625 20.7305 6.52344 21.2813 5.83203 21.2813ZM28.168 21.2813C27.4766 21.2813 26.9258 20.7305 26.9258 20.0391C26.9258 19.3594 27.4883 18.7969 28.168 18.7969C28.8594 18.7969 29.4102 19.3477 29.4102 20.0391C29.4102 20.7422 28.8711 21.2813 28.168 21.2813ZM11.4219 24.9727C10.5078 24.9727 9.75781 24.2109 9.75781 23.2969C9.75781 22.3828 10.5195 21.6211 11.4219 21.6211C12.3477 21.6211 13.0977 22.3711 13.0977 23.2969C13.0977 24.2344 12.3594 24.9727 11.4219 24.9727ZM22.6133 24.9727C21.6992 24.9727 20.9492 24.2109 20.9492 23.2969C20.9492 22.3828 21.7109 21.6211 22.6133 21.6211C23.5391 21.6211 24.2891 22.3711 24.2891 23.2969C24.2891 24.2344 23.5508 24.9727 22.6133 24.9727ZM17.0234 28.207C16.0977 28.207 15.3477 27.457 15.3477 26.5313C15.3477 25.6289 16.1211 24.8672 17.0234 24.8672C17.9375 24.8672 18.6875 25.6172 18.6875 26.5313C18.6875 27.4688 17.9492 28.207 17.0234 28.207ZM5.83203 27.7734C5.14062 27.7734 4.58984 27.2227 4.58984 26.5313C4.58984 25.8633 5.15234 25.3008 5.83203 25.3008C6.52344 25.3008 7.0625 25.8516 7.0625 26.5313C7.0625 27.2344 6.53516 27.7734 5.83203 27.7734ZM28.168 27.7734C27.4766 27.7734 26.9258 27.2227 26.9258 26.5313C26.9258 25.8633 27.4883 25.3008 28.168 25.3008C28.8594 25.3008 29.4102 25.8516 29.4102 26.5313C29.4102 27.2461 28.8711 27.7734 28.168 27.7734ZM11.4219 31.043C10.7305 31.043 10.1797 30.5039 10.1797 29.8125C10.1797 29.1328 10.7539 28.5703 11.4219 28.5703C12.1133 28.5703 12.6641 29.1211 12.6641 29.8125C12.6641 30.5156 12.125 31.043 11.4219 31.043ZM22.6133 31.043C21.9219 31.043 21.3711 30.5039 21.3711 29.8125C21.3711 29.1328 21.9453 28.5703 22.6133 28.5703C23.3047 28.5703 23.8555 29.1211 23.8555 29.8125C23.8555 30.5156 23.3164 31.043 22.6133 31.043ZM17.0234 34.2773C16.332 34.2773 15.7812 33.7266 15.7812 33.0352C15.7812 32.3555 16.3437 31.793 17.0234 31.793C17.7148 31.793 18.2539 32.3438 18.2539 33.0352C18.2539 33.7383 17.7266 34.2773 17.0234 34.2773Z" fill="url(#paint0_linear_669_4109)"/>
<path d="M47.0567 27.8077C45.4573 27.8077 44.0128 27.5301 42.7233 26.9749C41.4438 26.4097 40.3891 25.6067 39.5594 24.5656C38.7397 23.5147 38.2199 22.2655 38 20.8179L42.2585 20.1933C42.5584 21.4227 43.1781 22.3696 44.1178 23.0338C45.0575 23.6981 46.1271 24.0303 47.3266 24.0303C47.9964 24.0303 48.6462 23.9262 49.2759 23.7179C49.9057 23.5097 50.4205 23.2024 50.8204 22.7959C51.2302 22.3894 51.4352 21.8887 51.4352 21.2938C51.4352 21.0757 51.4002 20.8675 51.3302 20.6692C51.2702 20.461 51.1653 20.2677 51.0153 20.0892C50.8654 19.9108 50.6504 19.7422 50.3705 19.5836C50.1006 19.425 49.7558 19.2812 49.3359 19.1523L43.7279 17.5164C43.3081 17.3974 42.8183 17.2289 42.2585 17.0108C41.7087 16.7926 41.1739 16.4803 40.654 16.0738C40.1342 15.6674 39.6994 15.132 39.3495 14.4677C39.0096 13.7935 38.8397 12.9458 38.8397 11.9246C38.8397 10.487 39.2046 9.29231 39.9343 8.34051C40.664 7.38872 41.6387 6.67983 42.8582 6.21385C44.0778 5.74786 45.4273 5.51983 46.9068 5.52974C48.3963 5.54957 49.7258 5.80239 50.8954 6.2882C52.0649 6.77402 53.0446 7.48291 53.8343 8.41487C54.624 9.33692 55.1938 10.4672 55.5437 11.8056L51.1353 12.5492C50.9753 11.8552 50.6804 11.2703 50.2506 10.7944C49.8207 10.3185 49.3059 9.95658 48.7061 9.70872C48.1164 9.46085 47.4966 9.32701 46.8468 9.30718C46.207 9.28735 45.6023 9.37658 45.0325 9.57487C44.4727 9.76325 44.0128 10.0409 43.653 10.4077C43.3031 10.7745 43.1282 11.2108 43.1282 11.7164C43.1282 12.1824 43.2731 12.5641 43.563 12.8615C43.8529 13.1491 44.2178 13.3821 44.6576 13.5605C45.0974 13.739 45.5473 13.8877 46.0071 14.0067L49.7558 15.0179C50.3156 15.1667 50.9353 15.365 51.6151 15.6128C52.2948 15.8508 52.9446 16.1879 53.5644 16.6241C54.1942 17.0504 54.709 17.6156 55.1088 18.3195C55.5187 19.0234 55.7236 19.9157 55.7236 20.9964C55.7236 22.1465 55.4787 23.1528 54.9889 24.0154C54.509 24.868 53.8593 25.5769 53.0396 26.1421C52.2199 26.6973 51.2902 27.1137 50.2506 27.3913C49.221 27.6689 48.1563 27.8077 47.0567 27.8077Z" fill="white"/>
<path d="M65.0472 27.8077C63.3878 27.8077 61.9233 27.4557 60.6538 26.7518C59.3942 26.038 58.4046 25.0614 57.6849 23.8221C56.9751 22.5728 56.6202 21.1451 56.6202 19.539C56.6202 17.7841 56.9701 16.2573 57.6699 14.9585C58.3696 13.6597 59.3343 12.6533 60.5638 11.9395C61.7934 11.2157 63.2079 10.8538 64.8073 10.8538C66.5067 10.8538 67.9512 11.2504 69.1407 12.0436C70.3303 12.8368 71.21 13.9521 71.7798 15.3897C72.3496 16.8274 72.5495 18.5178 72.3796 20.461H68.346V18.9738C68.346 17.3379 68.0811 16.1631 67.5513 15.4492C67.0315 14.7255 66.1768 14.3636 64.9872 14.3636C63.5977 14.3636 62.5731 14.785 61.9133 15.6277C61.2636 16.4605 60.9387 17.6949 60.9387 19.3308C60.9387 20.8279 61.2636 21.9879 61.9133 22.8108C62.5731 23.6238 63.5377 24.0303 64.8073 24.0303C65.607 24.0303 66.2917 23.8568 66.8615 23.5097C67.4313 23.1627 67.8662 22.6621 68.1661 22.0077L72.2446 23.1677C71.6348 24.635 70.6702 25.7752 69.3506 26.5882C68.0411 27.4012 66.6066 27.8077 65.0472 27.8077ZM59.6791 20.461V17.4569H70.4153V20.461H59.6791Z" fill="white"/>
<path d="M74.2658 27.3615V11.3H77.8645V15.2262L77.4747 14.7205C77.6846 14.1653 77.9645 13.6597 78.3144 13.2036C78.6642 12.7475 79.0941 12.3708 79.6039 12.0733C79.9938 11.8354 80.4186 11.652 80.8784 11.5231C81.3383 11.3843 81.8131 11.3 82.3029 11.2703C82.7928 11.2306 83.2826 11.2405 83.7724 11.3V15.0774C83.3226 14.9386 82.7977 14.894 82.198 14.9436C81.6082 14.9832 81.0734 15.1171 80.5935 15.3451C80.1137 15.5632 79.7089 15.8557 79.379 16.2226C79.0491 16.5795 78.7992 17.0058 78.6293 17.5015C78.4593 17.9873 78.3743 18.5376 78.3743 19.1523V27.3615H74.2658Z" fill="white"/>
<path d="M92.3596 27.8077C90.7002 27.8077 89.2357 27.4557 87.9662 26.7518C86.7067 26.038 85.717 25.0614 84.9973 23.8221C84.2875 22.5728 83.9327 21.1451 83.9327 19.539C83.9327 17.7841 84.2825 16.2573 84.9823 14.9585C85.682 13.6597 86.6467 12.6533 87.8762 11.9395C89.1058 11.2157 90.5203 10.8538 92.1197 10.8538C93.8191 10.8538 95.2636 11.2504 96.4531 12.0436C97.6427 12.8368 98.5224 13.9521 99.0922 15.3897C99.662 16.8274 99.8619 18.5178 99.692 20.461H95.6584V18.9738C95.6584 17.3379 95.3935 16.1631 94.8637 15.4492C94.3439 14.7255 93.4892 14.3636 92.2996 14.3636C90.9101 14.3636 89.8855 14.785 89.2257 15.6277C88.576 16.4605 88.2511 17.6949 88.2511 19.3308C88.2511 20.8279 88.576 21.9879 89.2257 22.8108C89.8855 23.6238 90.8502 24.0303 92.1197 24.0303C92.9194 24.0303 93.6042 23.8568 94.174 23.5097C94.7438 23.1627 95.1786 22.6621 95.4785 22.0077L99.557 23.1677C98.9472 24.635 97.9826 25.7752 96.6631 26.5882C95.3535 27.4012 93.9191 27.8077 92.3596 27.8077ZM86.9916 20.461V17.4569H97.7277V20.461H86.9916Z" fill="white"/>
<path d="M112.175 27.3615V19.7769C112.175 19.4101 112.155 18.9441 112.115 18.379C112.075 17.8039 111.95 17.2289 111.74 16.6538C111.53 16.0788 111.185 15.5979 110.705 15.2113C110.236 14.8246 109.566 14.6313 108.696 14.6313C108.346 14.6313 107.971 14.6858 107.572 14.7949C107.172 14.9039 106.797 15.1171 106.447 15.4344C106.097 15.7417 105.807 16.1978 105.577 16.8026C105.357 17.4073 105.247 18.2104 105.247 19.2118L102.908 18.1113C102.908 16.8422 103.168 15.6525 103.688 14.5421C104.208 13.4316 104.988 12.5344 106.027 11.8503C107.077 11.1662 108.396 10.8241 109.986 10.8241C111.255 10.8241 112.29 11.0373 113.09 11.4636C113.889 11.8899 114.509 12.4303 114.949 13.0846C115.399 13.739 115.719 14.4231 115.909 15.1369C116.099 15.8409 116.214 16.4853 116.254 17.0703C116.293 17.6552 116.313 18.0815 116.313 18.3492V27.3615H112.175ZM101.109 27.3615V11.3H104.738V16.6241H105.247V27.3615H101.109Z" fill="white"/>
<path d="M124.98 27.8077C123.49 27.8077 122.186 27.4359 121.066 26.6923C119.946 25.9487 119.072 24.9374 118.442 23.6585C117.822 22.3795 117.512 20.9369 117.512 19.3308C117.512 17.6949 117.827 16.2424 118.457 14.9733C119.097 13.6944 119.991 12.688 121.141 11.9544C122.291 11.2207 123.64 10.8538 125.19 10.8538C126.729 10.8538 128.024 11.2256 129.073 11.9692C130.123 12.7128 130.918 13.7241 131.457 15.0031C131.997 16.2821 132.267 17.7246 132.267 19.3308C132.267 20.9369 131.992 22.3795 131.442 23.6585C130.903 24.9374 130.093 25.9487 129.013 26.6923C127.934 27.4359 126.589 27.8077 124.98 27.8077ZM125.639 24.2087C126.549 24.2087 127.274 24.0055 127.814 23.599C128.363 23.1925 128.758 22.6224 128.998 21.8887C129.238 21.155 129.358 20.3024 129.358 19.3308C129.358 18.3591 129.238 17.5065 128.998 16.7728C128.758 16.0391 128.373 15.4691 127.844 15.0626C127.324 14.6561 126.639 14.4528 125.789 14.4528C124.88 14.4528 124.13 14.6759 123.54 15.1221C122.96 15.5583 122.531 16.1482 122.251 16.8918C121.971 17.6255 121.831 18.4385 121.831 19.3308C121.831 20.233 121.966 21.0559 122.236 21.7995C122.506 22.5332 122.92 23.1181 123.48 23.5544C124.04 23.9906 124.76 24.2087 125.639 24.2087ZM129.358 27.3615V16.3564H128.848V5.94615H132.957V27.3615H129.358Z" fill="white"/>
<path d="M135.956 9.06923V5.5H140.034V9.06923H135.956ZM135.956 27.3615V11.3H140.034V27.3615H135.956Z" fill="white"/>
<path d="M150.977 27.8077C149.368 27.8077 148.023 27.4359 146.944 26.6923C145.864 25.9487 145.049 24.9374 144.5 23.6585C143.96 22.3795 143.69 20.9369 143.69 19.3308C143.69 17.7246 143.96 16.2821 144.5 15.0031C145.039 13.7241 145.834 12.7128 146.884 11.9692C147.933 11.2256 149.228 10.8538 150.767 10.8538C152.317 10.8538 153.666 11.2207 154.816 11.9544C155.965 12.688 156.855 13.6944 157.485 14.9733C158.125 16.2424 158.445 17.6949 158.445 19.3308C158.445 20.9369 158.13 22.3795 157.5 23.6585C156.88 24.9374 156.01 25.9487 154.891 26.6923C153.771 27.4359 152.467 27.8077 150.977 27.8077ZM143 34.5V11.3H146.599V22.3051H147.109V34.5H143ZM150.317 24.2087C151.197 24.2087 151.917 23.9906 152.477 23.5544C153.036 23.1181 153.451 22.5332 153.721 21.7995C153.991 21.0559 154.126 20.233 154.126 19.3308C154.126 18.4385 153.986 17.6255 153.706 16.8918C153.426 16.1482 152.992 15.5583 152.402 15.1221C151.822 14.6759 151.077 14.4528 150.168 14.4528C149.318 14.4528 148.628 14.6561 148.098 15.0626C147.578 15.4691 147.199 16.0391 146.959 16.7728C146.719 17.5065 146.599 18.3591 146.599 19.3308C146.599 20.3024 146.719 21.155 146.959 21.8887C147.199 22.6224 147.588 23.1925 148.128 23.599C148.678 24.0055 149.408 24.2087 150.317 24.2087Z" fill="white"/>
<path d="M160.544 9.06923V5.5H164.623V9.06923H160.544ZM160.544 27.3615V11.3H164.623V27.3615H160.544Z" fill="white"/>
<path d="M177.335 27.3615C176.216 27.5697 175.116 27.659 174.037 27.6292C172.967 27.6094 172.007 27.426 171.158 27.079C170.318 26.7221 169.678 26.152 169.238 25.3687C168.838 24.635 168.629 23.8915 168.609 23.1379C168.589 22.3745 168.579 21.512 168.579 20.5503V6.83846H172.657V20.3123C172.657 20.9369 172.662 21.5021 172.672 22.0077C172.692 22.5034 172.797 22.9 172.987 23.1974C173.347 23.7626 173.922 24.0699 174.711 24.1195C175.501 24.1691 176.376 24.1294 177.335 24.0005V27.3615ZM165.82 14.4231V11.3H177.335V14.4231H165.82Z" fill="white"/>
<path d="M181.075 34.5L184.194 25.9933L184.254 28.4918L177.206 11.3H181.435L186.173 23.4651H185.213L189.921 11.3H194L184.853 34.5H181.075Z" fill="white"/>
<defs>
<linearGradient id="paint0_linear_669_4109" x1="17" y1="5.5" x2="17" y2="34.5" gradientUnits="userSpaceOnUse">
<stop stop-color="white"/>
<stop offset="1" stop-color="white" stop-opacity="0.5"/>
</linearGradient>
</defs>
</svg>
